<svg xmlns="http://www.w3.org/2000/svg" xmlns:xlink="http://www.w3.org/1999/xlink" viewBox="0 0 500 500"><defs><clipPath id="a"><path d="M246.60773,29.43547s-.03186,12.71115,33.19583,32.89848c64.514,39.19516,64.29651,75.12822,64.29651,82.669,0,32.03229-33.339,52.73925-48.808,35.98,0,0,15.1785-11.26479,15.1785-28.5863,0,0-11.13091,7.33635-16.94933,8.60125,0,0,7.58925-13.4078,4.04759-36.93452,0,0-6.07132,11.88987-25.55044,21.503,0,0,7.58925-16.94933.50593-33.13983,0,0,1.5178,20.23809-44.52377,41.74094s-31.87493,43.00584-31.87493,43.00584,9.17806-9.74634,24.76-2.90132c21.08043,9.26039,12.5614,46.42195-21.33739,46.42195-33.00358,0-54.66626-35.89162-54.66626-63.91819,0-11.588,1.25617-32.90735,22.1923-56.35582,16.65216-18.65042,37.18587-28.49048,41.59312-49.114-22.82038,21.14549-63.96551,34.94512-88.43406,71.13206-21.97814,32.50383-14.84256,75.49671-10.88609,88.72155A145.50693,145.50693,0,0,0,248.70781,334.84949c80.32568,0,146.27982-64.27938,146.27982-144.60493C394.98763,68.63972,279.37973,55.73622,246.60773,29.43547ZM227.14647,178.29962c-2.44786.56958-4.79148-.45464-8.70285-1.64418-3.65709-1.1122-4.95181-.89927-4.95181-.89927a61.97039,61.97039,0,0,1,7.73945-4.43894c3.88525-1.78892,7.204-1.8821,8.74769,1.67732C230.9937,175.33443,229.1531,177.83261,227.14647,178.29962Z" fill="none"/></clipPath><linearGradient id="b" x1="322.06507" y1="315.36387" x2="179.3901" y2="68.24358" gradientUnits="userSpaceOnUse"><stop offset="0" stop-color="#ff5a37"/><stop offset="1" stop-color="#ffa52d"/></linearGradient></defs><title>-</title><g style="isolation:isolate"><g clip-path="url(#a)"><path d="M246.60773,29.43547s-.03186,12.71115,33.19583,32.89848c64.514,39.19516,64.29651,75.12822,64.29651,82.669,0,32.03229-33.339,52.73925-48.808,35.98,0,0,15.1785-11.26479,15.1785-28.5863,0,0-11.13091,7.33635-16.94933,8.60125,0,0,7.58925-13.4078,4.04759-36.93452,0,0-6.07132,11.88987-25.55044,21.503,0,0,7.58925-16.94933.50593-33.13983,0,0,1.5178,20.23809-44.52377,41.74094s-31.87493,43.00584-31.87493,43.00584,9.17806-9.74634,24.76-2.90132c21.08043,9.26039,12.5614,46.42195-21.33739,46.42195-33.00358,0-54.66626-35.89162-54.66626-63.91819,0-11.588,1.25617-32.90735,22.1923-56.35582,16.65216-18.65042,37.18587-28.49048,41.59312-49.114-22.82038,21.14549-63.96551,34.94512-88.43406,71.13206-21.97814,32.50383-14.84256,75.49671-10.88609,88.72155A145.50693,145.50693,0,0,0,248.70781,334.84949c80.32568,0,146.27982-64.27938,146.27982-144.60493C394.98763,68.63972,279.37973,55.73622,246.60773,29.43547Z" fill="#ff5a37"/><path d="M275.68228,219.92377s3.64929,57.77338-64.78424,66.29311c-44.68916,5.56364-79.862-22.91392-95.12217-59.18647-10.6236-25.25168-11.59661-54.28116.58861-78.23314,0,0-44.37981,42.2998-42.3392,105.60706,2.11893,65.73709,54.13437,152.12818,249.27438,127.12587,64.8766-8.31231,88.6718-99.21919,89.63361-153.19571,1.19592-67.11462-30.20757-98.9259-30.20757-98.9259s16.38932,47.42012-21.38535,85.19479C340.29181,235.65193,304.477,242.93556,275.68228,219.92377Z" fill="#ffa52d" opacity="0.4" style="mix-blend-mode:lighten"/><path d="M381.02574,253.44214s-65.24443,19.90814-105.34346-33.51837c0,0,17.54251,67.99895-57.20878,112.15807,0,0,25.89959,76.78759,111.45,38.667C357.3739,358.51723,378.05355,299.40595,381.02574,253.44214Z" fill="#ffa52d" opacity="0.6" style="mix-blend-mode:lighten"/><path d="M267.43569,351.40358s40.81916-52.04205,8.24658-131.47981c0,0,29.24734,59.75236,81.66778,80.86973C357.35006,300.7935,326.00311,353.27088,267.43569,351.40358Z" fill="#ffa52d" opacity="0.8" style="mix-blend-mode:lighten"/><path d="M238.258,181.34527c25.61168-13.2019,33.82161-35.82037,33.82161-35.82037s7.58976-16.95865.5012-33.16113c0,0,1.51892,20.25306-44.55671,41.77182s-31.89851,43.03766-31.89851,43.03766a20.19655,20.19655,0,0,1,9.257-4.82437C212.9642,190.30925,224.89756,188.23211,238.258,181.34527Z" fill="#ffa52d" opacity="0.6" style="mix-blend-mode:overlay"/><path d="M239.57821,190.71862c19.79425,0,42.69259-9.20062,54.02363-29.74439a44.9883,44.9883,0,0,0,4.13219-13.32615c1.24993-7.81623,1.37912-13.6317-.066-24.19248,0,0-3.75208,10.509-25.58839,22.0693-7.92607,4.19612-18.08767,8.39235-31.52525,12.47043-52.06607,15.8012-44.42877,39.17792-44.42877,39.17792C204.33059,191.74242,204.3801,190.71862,239.57821,190.71862Z" fill="#ffa52d" opacity="0.4" style="mix-blend-mode:overlay"/><path d="M239.57821,190.71862c18.19734,0,42.93733,1.02329,55.78722-9.74771,7.8804-6.60549,15.07543-15.33524,15.21094-28.63849,0,0-10.77954,7.11485-16.97675,8.64464-8.5725,2.11613-23.9976,5.36158-38.11019,4.5605-47.89222-2.71852-59.36381,31.63569-59.36381,31.63569C202.72986,191.06582,210.76652,190.71862,239.57821,190.71862Z" fill="#ffa52d" opacity="0.2" style="mix-blend-mode:overlay"/><path d="M246.60773,29.43547s-.03186,12.71115,33.19583,32.89848c64.514,39.19516,64.29651,75.12822,64.29651,82.669,0,32.03229-33.339,52.73925-48.808,35.98,0,0,15.1785-11.26479,15.1785-28.5863,0,0-11.13091,7.33635-16.94933,8.60125,0,0,7.58925-13.4078,4.04759-36.93452,0,0-6.07132,11.88987-25.55044,21.503,0,0,7.58925-16.94933.50593-33.13983,0,0,1.5178,20.23809-44.52377,41.74094s-31.87493,43.00584-31.87493,43.00584,9.17806-9.74634,24.76-2.90132c21.08043,9.26039,12.5614,46.42195-21.33739,46.42195-33.00358,0-54.66626-35.89162-54.66626-63.91819,0-11.588,1.25617-32.90735,22.1923-56.35582,16.65216-18.65042,37.18587-28.49048,41.59312-49.114-22.82038,21.14549-63.96551,34.94512-88.43406,71.13206-21.97814,32.50383-14.84256,75.49671-10.88609,88.72155A145.50693,145.50693,0,0,0,248.70781,334.84949c80.32568,0,146.27982-64.27938,146.27982-144.60493C394.98763,68.63972,279.37973,55.73622,246.60773,29.43547Z" fill="url(#b)" style="mix-blend-mode:overlay"/></g><path d="M198.30461,449.50608A41.32178,41.32178,0,0,1,184.234,447.341a24.35671,24.35671,0,0,1-15.6168-16.05476,42.08465,42.08465,0,0,1-1.85564-12.96234V370.08152h17.2149v47.83011q0,8.55555,3.42707,13.09136,3.42731,4.53532,11.1586,4.53532,7.577,0,10.95247-4.53532,3.37566-4.53532,3.37615-13.09136V370.08152h16.90547v48.13906a42.59756,42.59756,0,0,1-1.85564,13.01424,25.46077,25.46077,0,0,1-5.69546,9.86993,24.85442,24.85442,0,0,1-9.81852,6.23624A41.49872,41.49872,0,0,1,198.30461,449.50608Z" fill="#ff5a37"/><path d="M245.413,448.21741V370.08152h17.11159v78.13588Z" fill="#ff5a37"/><path d="M302.31426,449.7122a45.43272,45.43272,0,0,1-16.77645-2.80917,41.86472,41.86472,0,0,1-12.44727-7.55062l8.65886-11.28761a32.36745,32.36745,0,0,0,8.8907,5.72116,26.0384,26.0384,0,0,0,10.643,2.2679q7.78221,0,11.31331-3.89123a14.20244,14.20244,0,0,0,3.53038-9.92182q0-6.64874-3.42707-10.38549-3.42877-3.73651-10.07654-3.73651a16.42609,16.42609,0,0,0-7.65344,1.88086,21.45447,21.45447,0,0,0-6.67469,5.59215l-11.08148-3.45326,3.14431-42.05705h47.41737l-.87641,12.988H293.55209l-1.4948,17.31772a17.59863,17.59863,0,0,1,5.87588-3.37566,28.22154,28.22154,0,0,1,9.89563-1.46909,28.64484,28.64484,0,0,1,10.95247,1.95847,22.56884,22.56884,0,0,1,7.98906,5.386,22.26238,22.26238,0,0,1,4.84475,8.2209,32.5947,32.5947,0,0,1,1.62332,10.51451,29.74661,29.74661,0,0,1-2.11318,11.39043,24.7752,24.7752,0,0,1-6.10723,8.865,27.94987,27.94987,0,0,1-9.76711,5.77257A38.28614,38.28614,0,0,1,302.31426,449.7122Z" fill="#ff5a37"/></g></svg>